<svg xmlns="http://www.w3.org/2000/svg" width="60" height="60" viewBox="0 0 400 400"><style>.st0{opacity:.1;fill:#fff}.st1,.st2{opacity:.3;fill:#fff}.st2{opacity:.15}.st3,.st4{opacity:.2;fill:#fff}.st4{opacity:5.000000e-02}</style><g id="Layer_1"><path d="M.3 0h80v80H.3z" class="st0"/><path d="M80.3 0h80v80h-80z" class="st1"/><path d="M160.3 0h80v80h-80z" class="st2"/><path d="M240.3 0h80v80h-80z" class="st3"/><path d="M320.3 0h80v80h-80z" class="st1"/><path d="M.2 80h80v80H.2z" class="st3"/><path d="M80.2 80h80v80h-80z" class="st4"/><path d="M160.2 80h80v80h-80z" class="st0"/><path d="M240.2 80h80v80h-80z" class="st4"/><path d="M320.2 80h80v80h-80z" class="st0"/><path d="M0 160h80v80H0z" class="st1"/><path d="M80 160h80v80H80z" class="st3"/><path d="M160 160h80v80h-80z" class="st1"/><path d="M240 160h80v80h-80z" class="st2"/><path d="M320 160h80v80h-80z" class="st4"/><path d="M0 240h80v80H0z" class="st3"/><path d="M80 240h80v80H80z" class="st0"/><path d="M160 240h80v80h-80z" class="st4"/><path d="M240 240h80v80h-80z" class="st0"/><path d="M320 240h80v80h-80z" class="st3"/><path d="M.2 320h80v80H.2z" class="st4"/><path d="M80.2 320h80v80h-80z" class="st2"/><path d="M160.2 320h80v80h-80z" class="st1"/><path d="M240.2 320h80v80h-80z" class="st3"/><path d="M320.2 320h80v80h-80z" class="st2"/></g></svg>